<?xml version="1.0" standalone="no"?><!DOCTYPE svg PUBLIC "-//W3C//DTD SVG 1.1//EN" "http://www.w3.org/Graphics/SVG/1.1/DTD/svg11.dtd" ><svg xmlns="http://www.w3.org/2000/svg"><metadata></metadata><defs><font id="1.040;ADBE;DINNeuzeitGroteskStd-Light" horiz-adv-x="906"><font-face font-family="DIN Neuzeit Grotesk Std Light" font-weight="300" font-stretch="normal" units-per-em="1000" panose-1="2 11 5 2 2 2 3 2 2 4" ascent="760" descent="-240" x-height="4" bbox="0 -220 856 796" underline-thickness="50" underline-position="-125" unicode-range="U+0021-007d" /><missing-glyph horiz-adv-x="500" d="M0 0 l0 700 l500 0 l0 -700 l-500 0 ZM250 395 l170 255 l-340 0 l170 -255 ZM280 350 l170 -255 l0 510 l-170 -255 ZM80 50 l340 0 l-170 255 l-170 -255 ZM50 605 l0 -510 l170 255 l-170 255 Z" /><glyph glyph-name="exclam" unicode="!" d="M129.5 11.5 q-19.5 19.5 -19.5 46.5 q0 27 19.5 46.5 q19.5 19.5 46.5 19.5 q27 0 46.5 -19.5 q19.5 -19.5 19.5 -46.5 q0 -27 -19.5 -46.5 q-19.5 -19.5 -46.5 -19.5 q-27 0 -46.5 19.5 ZM128 183 l0 577 l96 0 l0 -577 l-96 0 Z" /><glyph glyph-name="quotedbl" unicode="&quot;" d="M147 478 l0 282 l74 0 l0 -282 l-74 0 ZM299 478 l0 282 l74 0 l0 -282 l-74 0 Z" /><glyph glyph-name="numbersign" unicode="#" d="M316 287 l22 160 l-134 0 l-22 -160 l134 0 ZM347 509 l31 225 l68 0 l-31 -225 l103 0 l0 -62 l-112 0 l-22 -160 l102 0 l0 -62 l-111 0 l-31 -225 l-68 0 l31 225 l-134 0 l-31 -225 l-68 0 l31 225 l-103 0 l0 62 l112 0 l22 160 l-102 0 l0 62 l111 0 l31 225 l68 0 l-31 -225 l134 0 Z" /><glyph glyph-name="quotesingle" unicode="&#39;" d="M111 478 l0 282 l74 0 l0 -282 l-74 0 Z" /><glyph glyph-name="parenleft" unicode="(" d="M326 -166 l-67 -54 q-190 237 -190 508 q0 271 190 508 l67 -54 q-161 -203 -161 -454 q0 -251 161 -454 Z" /><glyph glyph-name="parenright" unicode=")" d="M93 -220 l-67 54 q161 203 161 454 q0 251 -161 454 l67 54 q190 -237 190 -508 q0 -271 -190 -508 Z" /><glyph glyph-name="comma" unicode="," d="M4 -138 l100 262 l91 -44 l-126 -247 l-65 29 Z" /><glyph glyph-name="hyphen" unicode="-" d="M30 231 l0 90 l236 0 l0 -90 l-236 0 Z" /><glyph glyph-name="period" unicode="." d="M83.5 11.5 q-19.5 19.5 -19.5 46.5 q0 27 19.5 46.5 q19.5 19.5 46.5 19.5 q27 0 46.5 -19.5 q19.5 -19.5 19.5 -46.5 q0 -27 -19.5 -46.5 q-19.5 -19.5 -46.5 -19.5 q-27 0 -46.5 19.5 Z" /><glyph glyph-name="slash" unicode="/" d="M20 -12 l344 784 l79 0 l-344 -784 l-79 0 Z" /><glyph glyph-name="zero" unicode="0" d="M43 237 l0 281 q0 94 59 159 q59 65 158 65 q99 0 158 -65 q59 -65 59 -159 l0 -281 q0 -121 -58.5 -183 q-58.5 -62 -158.5 -62 q-100 0 -158.5 62 q-58.5 62 -58.5 183 ZM387 208 l0 313 q0 58 -32 97.5 q-32 39.5 -95 39.5 q-63 0 -95 -39.5 q-32 -39.5 -32 -97.5 l0 -313 q0 -58 32 -97.5 q32 -39.5 95 -39.5 q63 0 95 39.5 q32 39.5 32 97.5 Z" /><glyph glyph-name="three" unicode="3" d="M79 347 l213 303 l-247 0 l0 84 l407 0 l-194 -282 q93 0 153.5 -60 q60.5 -60 60.5 -161 q0 -103 -69.5 -171 q-69.5 -68 -166.5 -68 q-80 0 -130 26 q-50 26 -96 102 l77 43 q47 -92 142 -92 q59 0 106 42 q47 42 47 111 q0 71 -45.5 115.5 q-45.5 44.5 -117.5 44.5 q-76 0 -127 -49 l-13 12 Z" /><glyph glyph-name="eight" unicode="8" d="M397 213 q0 62 -39.5 101 q-39.5 39 -97.5 39 q-58 0 -97.5 -39 q-39.5 -39 -39.5 -101 q0 -64 39.5 -103 q39.5 -39 97.5 -39 q58 0 97.5 39 q39.5 39 39.5 103 ZM367 552 q0 48 -31 79.5 q-31 31.5 -76 31.5 q-45 0 -76 -31.5 q-31 -31.5 -31 -79.5 q0 -47 31 -78 q31 -31 76 -31 q45 0 76 31 q31 31 31 78 ZM33 208 q0 66 34 117 q34 51 91 75 q-45 22 -70 61.5 q-25 39.5 -25 88.5 q0 76 51 134 q51 58 146 58 q95 0 146 -58 q51 -58 51 -134 q0 -49 -25 -88.5 q-25 -39.5 -70 -61.5 q57 -24 91 -75 q34 -51 34 -117 q0 -89 -62 -152.5 q-62 -63.5 -165 -63.5 q-103 0 -165 63.5 q-62 63.5 -62 152.5 Z" /><glyph glyph-name="colon" unicode=":" d="M83.5 11.5 q-19.5 19.5 -19.5 46.5 q0 27 19.5 46.5 q19.5 19.5 46.5 19.5 q27 0 46.5 -19.5 q19.5 -19.5 19.5 -46.5 q0 -27 -19.5 -46.5 q-19.5 -19.5 -46.5 -19.5 q-27 0 -46.5 19.5 ZM83.5 420.5 q-19.5 19.5 -19.5 46.5 q0 27 19.5 46.5 q19.5 19.5 46.5 19.5 q27 0 46.5 -19.5 q19.5 -19.5 19.5 -46.5 q0 -27 -19.5 -46.5 q-19.5 -19.5 -46.5 -19.5 q-27 0 -46.5 19.5 Z" /><glyph glyph-name="semicolon" unicode=";" d="M4 -138 l100 262 l91 -44 l-126 -247 l-65 29 ZM83.5 420.5 q-19.5 19.5 -19.5 46.5 q0 27 19.5 46.5 q19.5 19.5 46.5 19.5 q27 0 46.5 -19.5 q19.5 -19.5 19.5 -46.5 q0 -27 -19.5 -46.5 q-19.5 -19.5 -46.5 -19.5 q-27 0 -46.5 19.5 Z" /><glyph glyph-name="less" unicode="&lt;" d="M47 219 l0 68 l506 227 l0 -74 l-416 -187 l416 -187 l0 -74 l-506 227 Z" /><glyph glyph-name="equal" unicode="=" d="M47 318 l0 74 l506 0 l0 -74 l-506 0 ZM47 114 l0 74 l506 0 l0 -74 l-506 0 Z" /><glyph glyph-name="greater" unicode="&gt;" d="M463 253 l-416 187 l0 74 l506 -227 l0 -68 l-506 -227 l0 74 l416 187 Z" /><glyph glyph-name="question" unicode="?" d="M263 183 l-90 0 q0 101 19.5 152 q19.5 51 75.5 95 l54 42 q26 21 37 41 q11 20 11 51 q0 47 -30.5 79.5 q-30.5 32.5 -76.5 32.5 q-56 0 -84.5 -35.5 q-28.5 -35.5 -28.5 -89.5 l-96 0 q6 95 61.5 152 q55.5 57 149.5 57 q90 0 145.5 -58.5 q55.5 -58.5 55.5 -141.5 q0 -45 -16 -79 q-16 -34 -61 -69 l-59 -46 q-42 -33 -54.5 -64 q-12.5 -31 -12.5 -119 ZM171.5 11.5 q-19.5 19.5 -19.5 46.5 q0 27 19.5 46.5 q19.5 19.5 46.5 19.5 q27 0 46.5 -19.5 q19.5 -19.5 19.5 -46.5 q0 -27 -19.5 -46.5 q-19.5 -19.5 -46.5 -19.5 q-27 0 -46.5 19.5 Z" /><glyph glyph-name="at" unicode="@" d="M512 431 q0 38 -26.5 67.5 q-26.5 29.5 -61.5 29.5 q-71 0 -120 -66.5 q-49 -66.5 -49 -138.5 q0 -45 26 -73 q26 -28 69 -28 q65 0 113.5 70 q48.5 70 48.5 139 ZM545 521 l19 64 l79 0 l-83 -275 q-15 -54 -15 -69 q0 -25 21 -25 q59 0 108.5 70 q49.5 70 49.5 154 q0 123 -87.5 196.5 q-87.5 73.5 -218.5 73.5 q-146 0 -241 -96.5 q-95 -96.5 -95 -236.5 q0 -139 99 -233 q99 -94 245 -94 q76 0 146.5 32.5 q70.5 32.5 116.5 87.5 l74 0 q-53 -85 -144 -133.5 q-91 -48.5 -195 -48.5 q-175 0 -295.5 114 q-120.5 114 -120.5 280 q0 163 120.5 276.5 q120.5 113.5 289.5 113.5 q154 0 264 -91.5 q110 -91.5 110 -231.5 q0 -67 -27 -126 q-27 -59 -67 -96 q-40 -37 -84 -58 q-44 -21 -82 -21 q-29 0 -48 16 q-19 16 -22 48 l-3 0 q-58 -64 -129 -64 q-69 0 -114 48.5 q-45 48.5 -45 117.5 q0 71 30.5 136.5 q30.5 65.5 89 108.5 q58.5 43 131.5 43 q87 0 123 -81 Z" /><glyph glyph-name="C" unicode="c" d="M714 675 l-65 -71 q-86 78 -196 78 q-122 0 -211.5 -86.5 q-89.5 -86.5 -89.5 -215.5 q0 -129 90.5 -215.5 q90.5 -86.5 210.5 -86.5 q117 0 203 81 l61 -69 q-51 -47 -122 -74.5 q-71 -27.5 -142 -27.5 q-93 0 -171 34.5 q-78 34.5 -127.5 91 q-49.5 56.5 -77 125.5 q-27.5 69 -27.5 141 q0 72 27.5 141 q27.5 69 77 125.5 q49.5 56.5 127.5 91 q78 34.5 171 34.5 q74 0 144 -27 q70 -27 117 -70 Z" /><glyph glyph-name="D" unicode="d" d="M76 0 l0 760 l250 0 q144 0 254.5 -109 q110.5 -109 110.5 -268 q0 -162 -113 -272.5 q-113 -110.5 -276 -110.5 l-226 0 ZM172 90 l129 0 q126 0 207 85.5 q81 85.5 81 212.5 q0 121 -85.5 201.5 q-85.5 80.5 -210.5 80.5 l-121 0 l0 -580 Z" /><glyph glyph-name="E" unicode="e" d="M76 0 l0 760 l393 0 l0 -90 l-297 0 l0 -241 l297 0 l0 -90 l-297 0 l0 -249 l297 0 l0 -90 l-393 0 Z" /><glyph glyph-name="F" unicode="f" d="M76 0 l0 760 l393 0 l0 -90 l-297 0 l0 -241 l297 0 l0 -90 l-297 0 l0 -339 l-96 0 Z" /><glyph glyph-name="H" unicode="h" d="M569 434 l0 326 l96 0 l0 -760 l-96 0 l0 344 l-397 0 l0 -344 l-96 0 l0 760 l96 0 l0 -326 l397 0 Z" /><glyph glyph-name="O" unicode="o" d="M77.5 239 q-27.5 69 -27.5 141 q0 72 27.5 141 q27.5 69 77 125.5 q49.5 56.5 127.5 91 q78 34.5 171 34.5 q93 0 171 -34.5 q78 -34.5 127.5 -91 q49.5 -56.5 77 -125.5 q27.5 -69 27.5 -141 q0 -72 -27.5 -141 q-27.5 -69 -77 -125.5 q-49.5 -56.5 -127.5 -91 q-78 -34.5 -171 -34.5 q-93 0 -171 34.5 q-78 34.5 -127.5 91 q-49.5 56.5 -77 125.5 ZM242 596.5 q-90 -85.5 -90 -216.5 q0 -131 90 -216.5 q90 -85.5 211 -85.5 q121 0 211 85.5 q90 85.5 90 216.5 q0 131 -90 216.5 q-90 85.5 -211 85.5 q-121 0 -211 -85.5 Z" /><glyph glyph-name="P" unicode="p" d="M76 0 l0 760 l210 0 q116 0 186.5 -75 q70.5 -75 70.5 -176 q0 -101 -70.5 -175.5 q-70.5 -74.5 -186.5 -74.5 l-114 0 l0 -259 l-96 0 ZM172 343 l94 0 q87 0 134 42 q47 42 47 124 q0 82 -47 124.5 q-47 42.5 -134 42.5 l-94 0 l0 -333 Z" /><glyph glyph-name="S" unicode="s" d="M522 543 l-90 0 q-10 68 -48 106.5 q-38 38.5 -98 38.5 q-73 0 -105 -37.5 q-32 -37.5 -32 -85.5 q0 -80 111 -121 l96 -36 q177 -66 177 -208 q0 -93 -67.5 -152.5 q-67.5 -59.5 -176.5 -59.5 q-107 0 -173 57 q-66 57 -75 168 l96 0 q14 -141 157 -141 q62 0 102.5 34.5 q40.5 34.5 40.5 85.5 q0 78 -118 124 l-97 38 q-169 66 -169 208 q0 95 68 152.5 q68 57.5 166 57.5 q98 0 162.5 -58.5 q64.5 -58.5 72.5 -170.5 Z" /><glyph glyph-name="T" unicode="t" d="M211 0 l0 670 l-190 0 l0 90 l476 0 l0 -90 l-190 0 l0 -670 l-96 0 Z" /><glyph glyph-name="U" unicode="u" d="M72 276 l0 484 l96 0 l0 -456 q0 -98 53 -162 q53 -64 149 -64 q96 0 149 64 q53 64 53 162 l0 456 l96 0 l0 -484 q0 -124 -84.5 -206 q-84.5 -82 -215.5 -82 q-128 0 -212 82 q-84 82 -84 206 Z" /><glyph glyph-name="Y" unicode="y" d="M315 404 l193 356 l112 0 l-257 -457 l0 -303 l-96 0 l0 303 l-257 457 l112 0 l193 -356 Z" /><glyph glyph-name="a" unicode="a" d="M419 295 l0 54 q0 58 -45.5 81.5 q-45.5 23.5 -110.5 23.5 q-71 0 -144 -36 l-39 75 q96 40 188 40 q102 0 171.5 -44.5 q69.5 -44.5 69.5 -132.5 l0 -356 l-84 0 l0 56 q-65 -68 -166 -68 q-98 0 -162.5 51 q-64.5 51 -64.5 136 q0 75 61 127 q61 52 165 52 q95 0 161 -59 ZM386.5 97 q35.5 30 35.5 74 q0 44 -35.5 74 q-35.5 30 -111.5 30 q-76 0 -111.5 -30 q-35.5 -30 -35.5 -74 q0 -44 35.5 -74 q35.5 -30 111.5 -30 q76 0 111.5 30 Z" /><glyph glyph-name="b" unicode="b" d="M540 265 q0 71 -52.5 127.5 q-52.5 56.5 -138.5 56.5 q-74 0 -129 -55.5 q-55 -55.5 -55 -133.5 q0 -78 55 -133 q55 -55 132 -55 q75 0 131.5 53.5 q56.5 53.5 56.5 139.5 ZM75 0 l0 760 l90 0 l0 -321 l2 0 q31 45 84.5 69.5 q53.5 24.5 113.5 24.5 q111 0 191 -77.5 q80 -77.5 80 -189.5 q0 -120 -81.5 -199 q-81.5 -79 -193.5 -79 q-129 0 -194 92 l-2 0 l0 -80 l-90 0 Z" /><glyph glyph-name="c" unicode="c" d="M495 468 l-61 -71 q-53 52 -121 52 q-71 0 -121.5 -51 q-50.5 -51 -50.5 -142 q0 -79 51.5 -131.5 q51.5 -52.5 129.5 -52.5 q59 0 116 53 l53 -66 q-70 -71 -180 -71 q-117 0 -191.5 80 q-74.5 80 -74.5 191 q0 113 77.5 193.5 q77.5 80.5 189.5 80.5 q108 0 183 -65 Z" /><glyph glyph-name="d" unicode="d" d="M464 127 q55 55 55 133 q0 78 -55 133.5 q-55 55.5 -129 55.5 q-86 0 -138.5 -56.5 q-52.5 -56.5 -52.5 -127.5 q0 -86 56.5 -139.5 q56.5 -53.5 131.5 -53.5 q77 0 132 55 ZM519 439 l0 321 l90 0 l0 -760 l-90 0 l0 80 l-2 0 q-65 -92 -194 -92 q-112 0 -193.5 79 q-81.5 79 -81.5 199 q0 112 80 189.5 q80 77.5 191 77.5 q60 0 113.5 -24.5 q53.5 -24.5 84.5 -69.5 l2 0 Z" /><glyph glyph-name="e" unicode="e" d="M495 156 l69 -55 q-101 -113 -235 -113 q-132 0 -208 81 q-76 81 -76 192 q0 114 75 193 q75 79 194 79 q121 0 197 -85 q76 -85 76 -222 l-446 0 q11 -68 61.5 -111 q50.5 -43 125.5 -43 q95 0 167 84 ZM141 300 l344 0 q-7 65 -55 107 q-48 42 -117 42 q-76 0 -120 -44.5 q-44 -44.5 -52 -104.5 Z" /><glyph glyph-name="f" unicode="f" d="M98 521 l0 79 q0 79 48.5 120.5 q48.5 41.5 130.5 45.5 l0 -90 l-18 0 q-33 0 -52 -23.5 q-19 -23.5 -19 -59.5 l0 -72 l85 0 l0 -79 l-85 0 l0 -442 l-90 0 l0 442 l-79 0 l0 79 l79 0 Z" /><glyph glyph-name="g" unicode="g" d="M512 439 l0 82 l90 0 l0 -449 q0 -146 -72 -219 q-72 -73 -222 -73 q-142 0 -243 112 l72 57 q72 -90 173 -90 q202 0 202 186 l0 37 l-2 0 q-39 -46 -83.5 -67 q-44.5 -21 -117.5 -21 q-122 0 -195 85 q-73 85 -73 186 q0 112 80 190 q80 78 191 78 q60 0 113.5 -24.5 q53.5 -24.5 84.5 -69.5 l2 0 ZM457 127.5 q55 54.5 55 132.5 q0 78 -55 133.5 q-55 55.5 -129 55.5 q-86 0 -138.5 -56.5 q-52.5 -56.5 -52.5 -127.5 q0 -86 56.5 -139 q56.5 -53 131.5 -53 q77 0 132 54.5 Z" /><glyph glyph-name="h" unicode="h" d="M415 0 l0 303 q0 64 -29 105 q-29 41 -92 41 q-63 0 -99 -41 q-36 -41 -36 -115 l0 -293 l-90 0 l0 760 l90 0 l0 -300 l2 0 q20 34 59 53.5 q39 19.5 84 19.5 q84 0 142.5 -48.5 q58.5 -48.5 58.5 -147.5 l0 -337 l-90 0 Z" /><glyph glyph-name="i" unicode="i" d="M75 0 l0 521 l90 0 l0 -521 l-90 0 ZM75.5 641.5 q-18.5 18.5 -18.5 44.5 q0 26 18.5 44.5 q18.5 18.5 44.5 18.5 q26 0 44.5 -18.5 q18.5 -18.5 18.5 -44.5 q0 -26 -18.5 -44.5 q-18.5 -18.5 -44.5 -18.5 q-26 0 -44.5 18.5 Z" /><glyph glyph-name="k" unicode="k" d="M165 294 l220 227 l118 0 l-241 -241 l246 -280 l-126 0 l-217 253 l0 -253 l-90 0 l0 760 l90 0 l0 -466 Z" /><glyph glyph-name="l" unicode="l" d="M63 760 l90 0 l0 -597 q0 -41 16.5 -60 q16.5 -19 41.5 -19 l27 0 l0 -84 l-37 0 q-65 0 -101.5 38.5 q-36.5 38.5 -36.5 117.5 l0 604 Z" /><glyph glyph-name="m" unicode="m" d="M743 0 l0 319 q0 64 -32 97 q-32 33 -82 33 q-58 0 -94.5 -35.5 q-36.5 -35.5 -36.5 -98.5 l0 -315 l-90 0 l0 319 q0 64 -32 97 q-32 33 -82 33 q-58 0 -94.5 -35.5 q-36.5 -35.5 -36.5 -98.5 l0 -315 l-90 0 l0 521 l90 0 l0 -62 l2 0 q17 37 57.5 55.5 q40.5 18.5 86.5 18.5 q103 0 154 -90 q44 90 170 90 q88 0 144 -52.5 q56 -52.5 56 -151.5 l0 -329 l-90 0 Z" /><glyph glyph-name="n" unicode="n" d="M415 0 l0 303 q0 64 -29 105 q-29 41 -92 41 q-63 0 -99 -41 q-36 -41 -36 -115 l0 -293 l-90 0 l0 521 l90 0 l0 -61 l2 0 q20 34 59 53.5 q39 19.5 84 19.5 q84 0 142.5 -48.5 q58.5 -48.5 58.5 -147.5 l0 -337 l-90 0 Z" /><glyph glyph-name="o" unicode="o" d="M60 260 q0 112 80.5 192.5 q80.5 80.5 201.5 80.5 q121 0 201.5 -80.5 q80.5 -80.5 80.5 -192.5 q0 -114 -78.5 -193 q-78.5 -79 -203.5 -79 q-125 0 -203.5 79 q-78.5 79 -78.5 193 ZM473 394.5 q-55 54.5 -131 54.5 q-76 0 -131 -54.5 q-55 -54.5 -55 -134.5 q0 -75 55.5 -131.5 q55.5 -56.5 130.5 -56.5 q75 0 130.5 56.5 q55.5 56.5 55.5 131.5 q0 80 -55 134.5 Z" /><glyph glyph-name="p" unicode="p" d="M540 265 q0 71 -52.5 127.5 q-52.5 56.5 -138.5 56.5 q-74 0 -129 -55.5 q-55 -55.5 -55 -133.5 q0 -78 55 -133 q55 -55 132 -55 q75 0 131.5 53.5 q56.5 53.5 56.5 139.5 ZM75 -220 l0 741 l90 0 l0 -82 l2 0 q31 45 84.5 69.5 q53.5 24.5 113.5 24.5 q111 0 191 -77.5 q80 -77.5 80 -189.5 q0 -120 -81.5 -199 q-81.5 -79 -193.5 -79 q-129 0 -194 92 l-2 0 l0 -300 l-90 0 Z" /><glyph glyph-name="r" unicode="r" d="M75 0 l0 521 l90 0 l0 -74 l2 0 q31 56 65 71 q34 15 99 15 l0 -95 q-22 5 -41 5 q-57 0 -91 -38.5 q-34 -38.5 -34 -108.5 l0 -296 l-90 0 Z" /><glyph glyph-name="s" unicode="s" d="M39 152 l84 0 q4 -40 34.5 -62.5 q30.5 -22.5 73.5 -22.5 q55 0 79 23 q24 23 24 52 q0 26 -20.5 43 q-20.5 17 -71.5 31 l-91 25 q-106 29 -106 134 q0 68 49.5 113 q49.5 45 136.5 45 q92 0 135.5 -47.5 q43.5 -47.5 43.5 -114.5 l-84 0 q-10 88 -97 88 q-42 0 -68 -21.5 q-26 -21.5 -26 -53.5 q0 -46 58 -63 l122 -35 q59 -17 84 -50 q25 -33 25 -86 q0 -76 -56 -119 q-56 -43 -133 -43 q-90 0 -142 44.5 q-52 44.5 -54 119.5 Z" /><glyph glyph-name="t" unicode="t" d="M91 521 l0 126 l90 0 l0 -126 l83 0 l0 -79 l-83 0 l0 -320 q0 -21 9 -29.5 q9 -8.5 35 -8.5 l41 0 l0 -83 q-13 -1 -55 -1 q-68 0 -94 25.5 q-26 25.5 -26 86.5 l0 330 l-72 0 l0 79 l72 0 Z" /><glyph glyph-name="u" unicode="u" d="M415 0 l0 61 l-2 0 q-20 -34 -59 -53.5 q-39 -19.5 -84 -19.5 q-84 0 -142.5 48.5 q-58.5 48.5 -58.5 147.5 l0 337 l90 0 l0 -303 q0 -64 29 -105 q29 -41 92 -41 q63 0 99 41 q36 41 36 115 l0 293 l90 0 l0 -521 l-90 0 Z" /><glyph glyph-name="v" unicode="v" d="M287 120 l165 401 l102 0 l-225 -521 l-84 0 l-225 521 l102 0 l165 -401 Z" /><glyph glyph-name="w" unicode="w" d="M606 144 l131 377 l96 0 l-192 -521 l-74 0 l-140 407 l-2 0 l-140 -407 l-74 0 l-192 521 l96 0 l131 -377 l2 0 l130 377 l96 0 l130 -377 l2 0 Z" /><glyph glyph-name="x" unicode="x" d="M287 333 l147 188 l114 0 l-202 -255 l210 -266 l-120 0 l-149 194 l-155 -194 l-114 0 l210 266 l-202 255 l120 0 l141 -188 Z" /><glyph glyph-name="y" unicode="y" d="M128 -220 l97 228 l-217 513 l102 0 l167 -402 l169 402 l96 0 l-320 -741 l-94 0 Z" /><glyph glyph-name="z" unicode="z" d="M21 0 l272 442 l-244 0 l0 79 l393 0 l-270 -442 l257 0 l0 -79 l-408 0 Z" /><glyph glyph-name="braceleft" unicode="{" d="M65 257 l0 62 q38 0 60 38.5 q22 38.5 22 91.5 l0 182 q0 58 31 93.5 q31 35.5 72 35.5 l67 0 l0 -62 l-34 0 q-46 0 -46 -97 l0 -170 q0 -112 -82 -142 l0 -2 q82 -30 82 -142 l0 -170 q0 -97 46 -97 l34 0 l0 -62 l-67 0 q-41 0 -72 35.5 q-31 35.5 -31 93.5 l0 182 q0 53 -22 91.5 q-22 38.5 -60 38.5 Z" /><glyph glyph-name="braceright" unicode="}" d="M35 -184 l0 62 l34 0 q46 0 46 97 l0 170 q0 112 82 142 l0 2 q-82 30 -82 142 l0 170 q0 97 -46 97 l-34 0 l0 62 l67 0 q41 0 72 -35.5 q31 -35.5 31 -93.5 l0 -182 q0 -53 22 -91.5 q22 -38.5 60 -38.5 l0 -62 q-38 0 -60 -38.5 q-22 -38.5 -22 -91.5 l0 -182 q0 -58 -31 -93.5 q-31 -35.5 -72 -35.5 l-67 0 Z" /></font>
</defs>
</svg>
